<svg width="21" height="14" viewBox="0 0 21 14" fill="none" xmlns="http://www.w3.org/2000/svg">
<path d="M20.1863 7.18632L20.0062 7.08041C19.4002 6.49986 18.5608 6.24881 17.4307 6.31157C16.493 6.36649 15.7478 6.72345 15.1827 7.05295C15.1827 7.04511 15.1827 7.03726 15.1827 7.02942C15.1827 6.74698 15.2155 6.44102 15.2482 6.14682C15.281 5.84477 15.3138 5.5388 15.3138 5.24853C15.3138 4.95825 15.2769 4.67189 15.1704 4.43261C15.1418 4.36985 15.0845 4.33454 15.0108 4.33454C14.7078 4.34239 14.1181 4.53852 13.9748 4.66013L13.897 4.82488C13.8929 5.14654 13.8192 6.04483 13.7455 6.15466C13.7455 6.15074 13.7046 6.26057 13.7046 6.26057C13.5776 7.54329 13.5736 8.66909 13.6923 9.63799C13.7046 9.73606 13.9011 9.8812 14.0485 9.93219C14.2123 9.99103 14.7282 9.85766 15.0271 9.75175L15.1377 9.73606C15.2319 9.72429 15.2851 9.64976 15.281 9.54777L15.2892 9.26926C15.5021 8.43373 16.3702 7.43737 17.3979 7.28831C17.9793 7.19809 18.4379 7.34323 18.7982 7.71981C18.8474 7.78649 18.9538 8.39058 18.569 9.08097C18.2864 9.59092 17.7132 10.0224 16.9639 10.2931C16.2555 10.552 15.4734 10.654 14.5112 10.6226C14.4703 10.599 13.6104 10.0381 13.6104 10.0381C12.8447 9.52423 11.8948 8.88484 11.0349 8.57102C10.8834 8.51611 10.6132 8.30036 10.4494 8.17091L10.3593 8.1003C9.86385 7.71981 8.918 7.11572 8.16051 6.6293C8.16051 6.6293 7.81656 6.40964 7.75105 6.36649C7.75105 6.33903 7.75105 6.28411 7.75105 6.28411C7.77152 6.26057 8.25059 5.98599 8.25059 5.98599C8.918 5.61333 9.2251 5.42897 9.29061 5.3309C9.27833 5.34659 9.38069 5.27991 9.38069 5.27991C9.38479 5.27991 11.0349 4.38162 11.0349 4.38162C12.6236 3.54609 14.4211 2.5968 15.367 1.65929L15.412 1.51415L15.4325 1.38862C15.4939 1.18857 15.498 1.03558 15.4448 0.855138C15.4325 0.804144 15.3834 0.745304 15.3178 0.733536C14.5808 0.662928 13.6268 1.08658 12.7628 1.86719C12.5663 2.04371 12.4025 2.13001 12.2305 2.22023L12.0995 2.29083C11.1455 2.81255 8.99171 4.09134 7.86569 4.78173C7.9394 3.62062 8.1646 1.96918 8.43894 0.59232L8.40618 0.427568L8.29153 0.219666L8.20555 0.0706049L8.18098 0.0627595C7.95578 -0.0470751 7.77152 -0.0039258 7.6364 0.0313782L7.4112 0.109832L7.11229 0.211821C7.05497 0.223589 7.00993 0.258893 6.98945 0.31381C6.45306 1.5573 6.00266 3.60885 5.8962 5.24853C4.81932 4.59344 3.82843 4.12272 3.34117 3.89521L3.32889 3.88736L3.27157 3.87559C3.0955 3.85206 2.88258 3.73045 2.67785 3.61277C2.65738 3.60101 2.26839 3.3578 2.26839 3.3578L1.64192 2.97338L1.47814 2.93807C1.20789 2.98122 0.69607 3.31465 0.540475 3.54217C0.520002 3.57355 0.511813 3.60493 0.511813 3.64023C0.511813 3.6873 0.528192 3.73438 0.540475 3.78145L0.569137 3.90305L0.5978 3.97758C0.896705 4.27178 1.6542 4.76212 2.39532 5.14261L3.25519 5.57803L4.56955 6.26842L4.79475 6.43709L4.95035 6.52339C4.95035 6.52339 4.96673 6.53124 4.97901 6.53908C4.62688 6.76268 2.58777 8.06892 2.58777 8.06892L1.33073 8.86523C1.21199 8.94368 0.716543 9.1555 0.605989 9.19865C0.331651 9.30456 0.126922 9.46932 0.0409354 9.64584L0.00817871 9.71644L0.0409354 9.76352L0.139206 9.83412L0.266138 9.9165L0.405354 10.0067L0.536381 10.0263C0.757489 10.0342 1.08506 9.91258 1.69515 9.6576C2.25611 9.41832 3.78339 8.53572 4.43852 8.15914L4.71696 7.99832C4.8316 8.00616 4.95854 7.91594 5.07319 7.83356C5.20421 7.73157 5.48674 7.56682 5.66281 7.49229C5.6669 7.49229 5.76927 7.43737 5.85935 7.38638C5.85935 7.41384 5.85935 7.45699 5.85935 7.45699C5.88801 9.37125 6.00266 10.7638 6.21967 11.8347V11.8543L6.24424 11.8974C6.3507 12.0504 6.47354 12.5015 6.58409 12.9016L6.83386 13.7019L6.90347 13.7764C7.04678 13.8666 7.4808 14.0275 7.76743 13.9961L7.84113 13.9882L7.88617 13.8902C7.91074 13.7725 7.91893 13.6548 7.91893 13.5254C7.91893 13.3802 7.90664 13.2155 7.89436 13.0193L7.87388 12.733C7.77971 11.3993 7.68963 9.46932 7.68963 8.1866V8.08461C7.92711 8.22583 8.96305 8.85346 8.96305 8.85346C10.7278 9.94788 13.3893 11.6072 15.0026 12.0426C15.0886 12.0661 15.1745 12.0465 15.236 11.9916L15.4857 11.8386L15.5308 11.8229C15.6249 11.7798 15.6864 11.6307 15.6946 11.4699C17.0499 11.4032 18.9457 10.905 19.957 9.68506C20.3501 9.21042 20.5262 8.63379 20.5262 8.13953C20.5262 7.73157 20.4074 7.38246 20.1945 7.19025" fill="#FCAF17"/>
</svg>
