{
  "accessors": [
    {
      "bufferView": 1,
      "componentType": 5126,
      "count": 8458,
      "max": [
        0.7222386598587036,
        0.3070874810218811,
        -0.2712388038635254
      ],
      "min": [
        -0.7222387790679932,
        -0.14029431343078613,
        -1.9481065273284912
      ],
      "type": "VEC3"
    },
    {
      "bufferView": 1,
      "byteOffset": 101496,
      "componentType": 5126,
      "count": 8458,
      "max": [
        0.9527642130851746,
        0.5223544239997864,
        0.9848899841308594
      ],
      "min": [
        -0.9527631402015686,
        -0.9999998211860657,
        -0.9785107374191284
      ],
      "type": "VEC3"
    },
    {
      "bufferView": 2,
      "componentType": 5126,
      "count": 8458,
      "max": [
        0.5137255191802979,
        0.26274511218070984,
        0.07450980693101883,
        1.0
      ],
      "min": [
        0.5137255191802979,
        0.26274511218070984,
        0.07450980693101883,
        1.0
      ],
      "type": "VEC4"
    },
    {
      "bufferView": 0,
      "componentType": 5125,
      "count": 49122,
      "type": "SCALAR"
    },
    {
      "bufferView": 1,
      "byteOffset": 202992,
      "componentType": 5126,
      "count": 10758,
      "max": [
        1.0710879564285278,
        0.12964347004890442,
        -0.4153920114040375
      ],
      "min": [
        -1.0710879564285278,
        -0.798816978931427,
        -1.0147746801376343
      ],
      "type": "VEC3"
    },
    {
      "bufferView": 1,
      "byteOffset": 332088,
      "componentType": 5126,
      "count": 10758,
      "max": [
        0.9998162388801575,
        0.9995657801628113,
        0.9997045397758484
      ],
      "min": [
        -0.9998161792755127,
        -0.9990834593772888,
        -0.999675452709198
      ],
      "type": "VEC3"
    },
    {
      "bufferView": 2,
      "byteOffset": 135328,
      "componentType": 5126,
      "count": 10758,
      "max": [
        0.48235294222831726,
        0.8901960849761963,
        0.8901960849761963,
        1.0
      ],
      "min": [
        0.48235294222831726,
        0.8901960849761963,
        0.8901960849761963,
        1.0
      ],
      "type": "VEC4"
    },
    {
      "bufferView": 0,
      "byteOffset": 196488,
      "componentType": 5125,
      "count": 64524,
      "type": "SCALAR"
    },
    {
      "bufferView": 1,
      "byteOffset": 461184,
      "componentType": 5126,
      "count": 65532,
      "max": [
        0.5933796167373657,
        0.2500068247318268,
        0.5811000466346741
      ],
      "min": [
        -0.593353271484375,
        -0.7791033387184143,
        -0.5090910792350769
      ],
      "type": "VEC3"
    },
    {
      "bufferView": 1,
      "byteOffset": 1247568,
      "componentType": 5126,
      "count": 65532,
      "max": [
        0.9999891519546509,
        0.8256357312202454,
        0.9429584741592407
      ],
      "min": [
        -0.9999476075172424,
        -0.8368743062019348,
        -0.9999995827674866
      ],
      "type": "VEC3"
    },
    {
      "bufferView": 2,
      "byteOffset": 307456,
      "componentType": 5126,
      "count": 65532,
      "max": [
        0.48235294222831726,
        0.8901960849761963,
        0.8901960849761963,
        1.0
      ],
      "min": [
        0.47843137383461,
        0.886274516582489,
        0.886274516582489,
        1.0
      ],
      "type": "VEC4"
    },
    {
      "bufferView": 0,
      "byteOffset": 454584,
      "componentType": 5125,
      "count": 295953,
      "type": "SCALAR"
    },
    {
      "bufferView": 1,
      "byteOffset": 2033952,
      "componentType": 5126,
      "count": 65532,
      "max": [
        0.5933796167373657,
        0.3541267514228821,
        0.6262823343276978
      ],
      "min": [
        -0.592178225517273,
        -0.8591026067733765,
        -0.5090910792350769
      ],
      "type": "VEC3"
    },
    {
      "bufferView": 1,
      "byteOffset": 2820336,
      "componentType": 5126,
      "count": 65532,
      "max": [
        0.9999891519546509,
        0.9999995231628418,
        0.9999985098838806
      ],
      "min": [
        -0.9975793957710266,
        -0.9999931454658508,
        -0.9999999403953552
      ],
      "type": "VEC3"
    },
    {
      "bufferView": 2,
      "byteOffset": 1355968,
      "componentType": 5126,
      "count": 65532,
      "max": [
        0.48235294222831726,
        0.8901960849761963,
        0.8901960849761963,
        1.0
      ],
      "min": [
        0.47843137383461,
        0.886274516582489,
        0.886274516582489,
        1.0
      ],
      "type": "VEC4"
    },
    {
      "bufferView": 0,
      "byteOffset": 1638396,
      "componentType": 5125,
      "count": 280458,
      "type": "SCALAR"
    },
    {
      "bufferView": 1,
      "byteOffset": 3606720,
      "componentType": 5126,
      "count": 31663,
      "max": [
        0.5864173173904419,
        0.3535920977592468,
        0.6259773373603821
      ],
      "min": [
        -0.5933796167373657,
        -0.8588913679122925,
        -0.5090910196304321
      ],
      "type": "VEC3"
    },
    {
      "bufferView": 1,
      "byteOffset": 3986676,
      "componentType": 5126,
      "count": 31663,
      "max": [
        0.9916330575942993,
        0.9990274310112,
        0.9993469715118408
      ],
      "min": [
        -0.9999891519546509,
        -0.9993583559989929,
        -0.9999995231628418
      ],
      "type": "VEC3"
    },
    {
      "bufferView": 2,
      "byteOffset": 2404480,
      "componentType": 5126,
      "count": 31663,
      "max": [
        0.48235294222831726,
        0.8901960849761963,
        0.8901960849761963,
        1.0
      ],
      "min": [
        0.47843137383461,
        0.886274516582489,
        0.886274516582489,
        1.0
      ],
      "type": "VEC4"
    },
    {
      "bufferView": 0,
      "byteOffset": 2760228,
      "componentType": 5125,
      "count": 152805,
      "type": "SCALAR"
    },
    {
      "bufferView": 1,
      "byteOffset": 4366632,
      "componentType": 5126,
      "count": 10084,
      "max": [
        0.8881176114082336,
        0.18588927388191223,
        -1.4476932287216187
      ],
      "min": [
        -0.8881175518035889,
        -0.46624499559402466,
        -2.262802839279175
      ],
      "type": "VEC3"
    },
    {
      "bufferView": 1,
      "byteOffset": 4487640,
      "componentType": 5126,
      "count": 10084,
      "max": [
        0.9999563097953796,
        0.9999973177909851,
        0.9992107152938843
      ],
      "min": [
        -0.9999563097953796,
        -0.9997422695159912,
        -1.0
      ],
      "type": "VEC3"
    },
    {
      "bufferView": 2,
      "byteOffset": 2911088,
      "componentType": 5126,
      "count": 10084,
      "max": [
        0.48235294222831726,
        0.8901960849761963,
        0.8901960849761963,
        1.0
      ],
      "min": [
        0.48235294222831726,
        0.8901960849761963,
        0.8901960849761963,
        1.0
      ],
      "type": "VEC4"
    },
    {
      "bufferView": 0,
      "byteOffset": 3371448,
      "componentType": 5125,
      "count": 60480,
      "type": "SCALAR"
    },
    {
      "bufferView": 1,
      "byteOffset": 4608648,
      "componentType": 5126,
      "count": 37516,
      "max": [
        0.7351360321044922,
        0.7970083951950073,
        -0.2712388038635254
      ],
      "min": [
        -0.7351362705230713,
        -0.6236399412155151,
        -1.9689576625823975
      ],
      "type": "VEC3"
    },
    {
      "bufferView": 1,
      "byteOffset": 5058840,
      "componentType": 5126,
      "count": 37516,
      "max": [
        0.9999650716781616,
        0.9999799728393555,
        0.9997966885566711
      ],
      "min": [
        -0.9999967217445374,
        -0.9991956353187561,
        -0.9998754858970642
      ],
      "type": "VEC3"
    },
    {
      "bufferView": 2,
      "byteOffset": 3072432,
      "componentType": 5126,
      "count": 37516,
      "max": [
        0.9529411792755127,
        0.8901960849761963,
        0.5764706134796143,
        1.0
      ],
      "min": [
        0.5137255191802979,
        0.26274511218070984,
        0.07450980693101883,
        1.0
      ],
      "type": "VEC4"
    },
    {
      "bufferView": 0,
      "byteOffset": 3613368,
      "componentType": 5125,
      "count": 223392,
      "type": "SCALAR"
    },
    {
      "bufferView": 1,
      "byteOffset": 5509032,
      "componentType": 5126,
      "count": 36884,
      "max": [
        0.5102449655532837,
        -0.21787922084331512,
        0.4212750792503357
      ],
      "min": [
        -0.5102449655532837,
        -0.7160769104957581,
        -0.16053220629692078
      ],
      "type": "VEC3"
    },
    {
      "bufferView": 1,
      "byteOffset": 5951640,
      "componentType": 5126,
      "count": 36884,
      "max": [
        0.9999992251396179,
        0.9999179244041443,
        0.9999351501464844
      ],
      "min": [
        -0.9999992251396179,
        -0.9998820424079895,
        -0.9998271465301514
      ],
      "type": "VEC3"
    },
    {
      "bufferView": 2,
      "byteOffset": 3672688,
      "componentType": 5126,
      "count": 36884,
      "max": [
        1.0,
        1.0,
        1.0,
        1.0
      ],
      "min": [
        0.0,
        0.0,
        0.0,
        1.0
      ],
      "type": "VEC4"
    },
    {
      "bufferView": 0,
      "byteOffset": 4506936,
      "componentType": 5125,
      "count": 221280,
      "type": "SCALAR"
    },
    {
      "bufferView": 1,
      "byteOffset": 6394248,
      "componentType": 5126,
      "count": 56893,
      "max": [
        0.7686548233032227,
        0.3535885810852051,
        -0.225410595536232
      ],
      "min": [
        -0.7686547636985779,
        -0.18073657155036926,
        -1.9929430484771729
      ],
      "type": "VEC3"
    },
    {
      "bufferView": 1,
      "byteOffset": 7076964,
      "componentType": 5126,
      "count": 56893,
      "max": [
        0.9985958337783813,
        0.999039351940155,
        0.9992907047271729
      ],
      "min": [
        -0.9985911846160889,
        -0.9993392825126648,
        -0.9993432760238647
      ],
      "type": "VEC3"
    },
    {
      "bufferView": 2,
      "byteOffset": 4262832,
      "componentType": 5126,
      "count": 56893,
      "max": [
        1.0,
        1.0,
        1.0,
        1.0
      ],
      "min": [
        0.9960784316062927,
        0.9960784316062927,
        0.9960784316062927,
        1.0
      ],
      "type": "VEC4"
    },
    {
      "bufferView": 0,
      "byteOffset": 5392056,
      "componentType": 5125,
      "count": 340992,
      "type": "SCALAR"
    },
    {
      "bufferView": 1,
      "byteOffset": 7759680,
      "componentType": 5126,
      "count": 8608,
      "max": [
        0.30509820580482483,
        1.708864450454712,
        -1.3488572835922241
      ],
      "min": [
        -0.30509820580482483,
        0.03401920944452286,
        -2.283439874649048
      ],
      "type": "VEC3"
    },
    {
      "bufferView": 1,
      "byteOffset": 7862976,
      "componentType": 5126,
      "count": 8608,
      "max": [
        0.9999756813049316,
        0.99992835521698,
        0.999994158744812
      ],
      "min": [
        -0.9999756813049316,
        -0.9989309906959534,
        -0.9999428391456604
      ],
      "type": "VEC3"
    },
    {
      "bufferView": 2,
      "byteOffset": 5173120,
      "componentType": 5126,
      "count": 8608,
      "max": [
        0.48235294222831726,
        0.8901960849761963,
        0.8901960849761963,
        1.0
      ],
      "min": [
        0.48235294222831726,
        0.8901960849761963,
        0.8901960849761963,
        1.0
      ],
      "type": "VEC4"
    },
    {
      "bufferView": 0,
      "byteOffset": 6756024,
      "componentType": 5125,
      "count": 51444,
      "type": "SCALAR"
    }
  ],
  "asset": {
    "extras": {
      "author": "kishi (https://sketchfab.com/ash.takafumi)",
      "license": "CC-BY-4.0 (http://creativecommons.org/licenses/by/4.0/)",
      "source": "https://sketchfab.com/3d-models/squirtle-29540657f34b4f81ba60410b81c9e273",
      "title": "Squirtle"
    },
    "generator": "Sketchfab-14.78.0",
    "version": "2.0"
  },
  "bufferViews": [
    {
      "buffer": 0,
      "byteLength": 6961800,
      "name": "floatBufferViews",
      "target": 34963
    },
    {
      "buffer": 0,
      "byteLength": 7966272,
      "byteOffset": 6961800,
      "byteStride": 12,
      "name": "floatBufferViews",
      "target": 34962
    },
    {
      "buffer": 0,
      "byteLength": 5310848,
      "byteOffset": 14928072,
      "byteStride": 16,
      "name": "floatBufferViews",
      "target": 34962
    }
  ],
  "buffers": [
    {
      "byteLength": 20238920,
      "uri": "scene.bin"
    }
  ],
  "extensionsUsed": [
    "KHR_materials_specular"
  ],
  "materials": [
    {
      "doubleSided": true,
      "extensions": {
        "KHR_materials_specular": {
          "specularColorFactor": [
            1.0,
            1.0,
            1.0
          ],
          "specularFactor": 0.0
        }
      },
      "name": "material_0",
      "pbrMetallicRoughness": {
        "baseColorFactor": [
          0.6920194393897973,
          0.6920194393897973,
          0.6920194393897973,
          1.0
        ],
        "metallicFactor": 0.42480701158270034,
        "roughnessFactor": 0.6191433227151344
      }
    }
  ],
  "meshes": [
    {
      "name": "Object_0",
      "primitives": [
        {
          "attributes": {
            "COLOR_0": 2,
            "NORMAL": 1,
            "POSITION": 0
          },
          "indices": 3,
          "material": 0,
          "mode": 4
        }
      ]
    },
    {
      "name": "Object_1",
      "primitives": [
        {
          "attributes": {
            "COLOR_0": 6,
            "NORMAL": 5,
            "POSITION": 4
          },
          "indices": 7,
          "material": 0,
          "mode": 4
        }
      ]
    },
    {
      "name": "Object_2",
      "primitives": [
        {
          "attributes": {
            "COLOR_0": 10,
            "NORMAL": 9,
            "POSITION": 8
          },
          "indices": 11,
          "material": 0,
          "mode": 4
        }
      ]
    },
    {
      "name": "Object_3",
      "primitives": [
        {
          "attributes": {
            "COLOR_0": 14,
            "NORMAL": 13,
            "POSITION": 12
          },
          "indices": 15,
          "material": 0,
          "mode": 4
        }
      ]
    },
    {
      "name": "Object_4",
      "primitives": [
        {
          "attributes": {
            "COLOR_0": 18,
            "NORMAL": 17,
            "POSITION": 16
          },
          "indices": 19,
          "material": 0,
          "mode": 4
        }
      ]
    },
    {
      "name": "Object_5",
      "primitives": [
        {
          "attributes": {
            "COLOR_0": 22,
            "NORMAL": 21,
            "POSITION": 20
          },
          "indices": 23,
          "material": 0,
          "mode": 4
        }
      ]
    },
    {
      "name": "Object_6",
      "primitives": [
        {
          "attributes": {
            "COLOR_0": 26,
            "NORMAL": 25,
            "POSITION": 24
          },
          "indices": 27,
          "material": 0,
          "mode": 4
        }
      ]
    },
    {
      "name": "Object_7",
      "primitives": [
        {
          "attributes": {
            "COLOR_0": 30,
            "NORMAL": 29,
            "POSITION": 28
          },
          "indices": 31,
          "material": 0,
          "mode": 4
        }
      ]
    },
    {
      "name": "Object_8",
      "primitives": [
        {
          "attributes": {
            "COLOR_0": 34,
            "NORMAL": 33,
            "POSITION": 32
          },
          "indices": 35,
          "material": 0,
          "mode": 4
        }
      ]
    },
    {
      "name": "Object_9",
      "primitives": [
        {
          "attributes": {
            "COLOR_0": 38,
            "NORMAL": 37,
            "POSITION": 36
          },
          "indices": 39,
          "material": 0,
          "mode": 4
        }
      ]
    }
  ],
  "nodes": [
    {
      "children": [
        1
      ],
      "matrix": [
        1.0,
        0.0,
        0.0,
        0.0,
        0.0,
        2.220446049250313e-16,
        -1.0,
        0.0,
        0.0,
        1.0,
        2.220446049250313e-16,
        0.0,
        0.0,
        0.0,
        0.0,
        1.0
      ],
      "name": "Sketchfab_model"
    },
    {
      "children": [
        2,
        3,
        4,
        5,
        6,
        7,
        8,
        9,
        10,
        11
      ],
      "name": "zeni.obj.cleaner.materialmerger.gles"
    },
    {
      "mesh": 0,
      "name": "Object_2"
    },
    {
      "mesh": 1,
      "name": "Object_3"
    },
    {
      "mesh": 2,
      "name": "Object_4"
    },
    {
      "mesh": 3,
      "name": "Object_5"
    },
    {
      "mesh": 4,
      "name": "Object_6"
    },
    {
      "mesh": 5,
      "name": "Object_7"
    },
    {
      "mesh": 6,
      "name": "Object_8"
    },
    {
      "mesh": 7,
      "name": "Object_9"
    },
    {
      "mesh": 8,
      "name": "Object_10"
    },
    {
      "mesh": 9,
      "name": "Object_11"
    }
  ],
  "scene": 0,
  "scenes": [
    {
      "name": "Sketchfab_Scene",
      "nodes": [
        0
      ]
    }
  ]
}
